<svg width="50" height="50" viewBox="0 0 50 50" fill="none" xmlns="http://www.w3.org/2000/svg">
<path d="M33.6984 42H12.3194C9.99094 42.0055 8.09155 40.1781 8.08583 37.9173L8.00001 10.1716C7.99429 7.91083 9.87652 6.06667 12.205 6.06111L32.7664 6.00001C35.0949 5.99446 36.9943 7.82195 37 10.0827V15.5" stroke="black" stroke-width="1.6" stroke-miterlimit="10" stroke-linecap="round" stroke-linejoin="round"/>
<path d="M32.0307 39.7333L31.9688 24.3124L40.9416 24.1895L41.0036 39.6104C41.0374 42.0688 39.0591 44.0858 36.5792 44.1193C34.0992 44.1528 32.0646 42.1917 32.0307 39.7333Z" fill="#4AD0FF"/>
<path d="M40.7831 19.317H32.1823C31.5116 19.317 30.9648 18.775 30.9648 18.1102V16.8865C30.9648 16.2217 31.5116 15.6797 32.1823 15.6797H40.7831C41.4539 15.6797 42.0006 16.2217 42.0006 16.8865V18.1102C42.0062 18.775 41.4595 19.317 40.7831 19.317Z" stroke="black" stroke-width="1.6" stroke-miterlimit="10"/>
<path d="M36.8121 43.9122H36.147C34.1123 43.9122 32.4609 42.2751 32.4609 40.2581V19.2778H40.4982V40.2637C40.4982 42.2807 38.8468 43.9122 36.8121 43.9122Z" stroke="black" stroke-width="1.6" stroke-miterlimit="10"/>
<path d="M14 33C14.8122 33 27 33 27 33" stroke="black" stroke-width="1.6" stroke-miterlimit="10" stroke-linecap="round" stroke-linejoin="round"/>
<path d="M14 28C14.8122 28 27 28 27 28" stroke="black" stroke-width="1.6" stroke-miterlimit="10" stroke-linecap="round" stroke-linejoin="round"/>
<path d="M14.3735 16.4456L16.9886 19.3354L22.4366 13.6889" stroke="black" stroke-width="1.6" stroke-linecap="round" stroke-linejoin="round"/>
</svg>
