<svg width="44" height="44" viewBox="0 0 44 44" fill="none" xmlns="http://www.w3.org/2000/svg">
<rect width="44" height="44" fill="white"/>
<path d="M26.987 40.6152C18.5239 41.5976 10.5855 40.9584 7.17655 40.3469C4.46203 39.8616 3.31783 38.4688 4.41074 35.4189C4.72638 34.5391 5.34188 33.8013 6.14677 33.3199C9.49652 31.3156 14.5389 29.911 15.04 27.8041C15.328 26.5849 15.399 24.4583 15.399 24.4583" stroke="black" stroke-width="1.6" stroke-miterlimit="10" stroke-linecap="round"/>
<path d="M24.5273 24.4583C24.5273 24.4583 24.7049 27.0702 25.202 28.242" stroke="black" stroke-width="1.6" stroke-miterlimit="10" stroke-linecap="round"/>
<path d="M14.5312 28.3051C14.5312 28.3051 16.1489 29.6189 19.9563 29.6189C23.6928 29.6189 25.2039 28.2419 25.2039 28.2419" stroke="black" stroke-width="1.6" stroke-miterlimit="10"/>
<path d="M12.1836 14.4523C12.1836 14.4523 10.7711 13.9039 10.1477 15.1073C9.49274 16.3738 10.2661 18.1019 12.1126 18.7609C12.1126 18.7609 13.2134 25.6497 19.8261 25.6497C26.4388 25.6497 27.5711 18.7609 27.5711 18.7609C29.4137 18.1059 30.191 16.3738 29.536 15.1073C28.9126 13.9039 27.5001 14.4523 27.5001 14.4523" stroke="black" stroke-width="1.6" stroke-miterlimit="10" stroke-linecap="round" stroke-linejoin="round"/>
<path d="M18.1967 2.95115C18.1967 2.95115 17.1472 2.35932 15.5059 2.95115C14.0578 3.47196 10.5779 5.80376 10.2189 10.4634C10.0492 12.6769 11.008 14.7285 11.9786 15.4151C12.2469 15.6044 14.5313 11.7733 15.2494 11.5129C15.2494 11.5129 18.8043 13.7343 21.2584 12.9886C21.4833 12.9215 21.582 12.6729 21.4557 12.4835L20.639 11.2486C20.639 11.2486 23.4127 12.089 24.6279 12.9215C26.6401 14.2985 27.3937 15.4782 27.7883 15.2849C28.1828 15.0876 29.6979 13.533 29.3349 9.74139C28.8891 5.09357 22.4815 -0.197382 18.1967 2.95115Z" fill="black" stroke="black" stroke-width="0.5" stroke-miterlimit="10"/>
<path d="M16.6501 16.0384C16.9573 16.0384 17.2064 15.7893 17.2064 15.4821C17.2064 15.1749 16.9573 14.9258 16.6501 14.9258C16.3428 14.9258 16.0938 15.1749 16.0938 15.4821C16.0938 15.7893 16.3428 16.0384 16.6501 16.0384Z" fill="black" stroke="black" stroke-width="0.8" stroke-miterlimit="10" stroke-linecap="round" stroke-linejoin="round"/>
<path d="M23.154 16.0384C23.4612 16.0384 23.7103 15.7893 23.7103 15.4821C23.7103 15.1749 23.4612 14.9258 23.154 14.9258C22.8467 14.9258 22.5977 15.1749 22.5977 15.4821C22.5977 15.7893 22.8467 16.0384 23.154 16.0384Z" fill="black" stroke="black" stroke-width="0.8" stroke-miterlimit="10" stroke-linecap="round" stroke-linejoin="round"/>
<path d="M18.1445 21.5583L21.6521 21.6057" stroke="black" stroke-width="1.6" stroke-miterlimit="10" stroke-linecap="round" stroke-linejoin="round"/>
<path d="M19.8945 17.6245V18.6069" stroke="black" stroke-width="1.3" stroke-miterlimit="10" stroke-linecap="round" stroke-linejoin="round"/>
<path d="M33.9871 40.8817C34.3896 41.0395 34.8315 41.0395 35.2339 40.8817C38.3114 39.6862 40.2211 36.7192 40.2211 33.6693V30.138C40.2211 29.7356 39.9488 29.3844 39.5582 29.2937C38.5955 29.0648 36.7332 28.5559 35.0367 27.7036C34.7684 27.5695 34.4527 27.5695 34.1844 27.7036C32.4839 28.5598 30.6216 29.0688 29.6589 29.2976C29.2722 29.3884 29 29.7356 29 30.1341V33.6693C29 36.7152 30.9096 39.6823 33.9871 40.8817Z" fill="#8EE0FF" stroke="black" stroke-width="1.6" stroke-miterlimit="10" stroke-linecap="round" stroke-linejoin="round"/>
<path d="M32.1992 33.8906L33.82 35.5114L36.9276 32.3999" stroke="black" stroke-width="1.6" stroke-miterlimit="10" stroke-linecap="round" stroke-linejoin="round"/>
</svg>
