<svg width="50" height="50" viewBox="0 0 50 50" fill="none" xmlns="http://www.w3.org/2000/svg">
<path d="M27.5516 43.6221C19.6696 44.2614 12.5716 43.6592 9.33992 43.0818C6.48579 42.5745 5.28274 41.1186 6.43186 37.9304C6.76374 37.0106 7.41089 36.2393 8.25718 35.7362C11.7792 33.6409 17.0809 32.1726 17.6078 29.9702C17.9106 28.6957 17.9853 26.4727 17.9853 26.4727" stroke="black" stroke-width="1.6" stroke-miterlimit="10" stroke-linecap="round"/>
<path d="M27.5898 26.4766C27.5898 26.4766 27.7765 29.2069 28.2992 30.4319" stroke="black" stroke-width="1.6" stroke-miterlimit="10" stroke-linecap="round"/>
<path d="M17.0781 30.4981C17.0781 30.4981 18.779 31.8716 22.7822 31.8716C26.7108 31.8716 28.2997 30.4321 28.2997 30.4321" stroke="black" stroke-width="1.6" stroke-miterlimit="10"/>
<path d="M14.6087 16.0171C14.6087 16.0171 13.1236 15.4438 12.4681 16.7017C11.7795 18.0257 12.5926 19.8322 14.534 20.521C14.534 20.521 15.6915 27.7223 22.6442 27.7223C29.597 27.7223 30.7877 20.521 30.7877 20.521C32.725 19.8363 33.5422 18.0257 32.8536 16.7017C32.1981 15.4438 30.713 16.0171 30.713 16.0171" stroke="black" stroke-width="1.6" stroke-miterlimit="10" stroke-linecap="round" stroke-linejoin="round"/>
<path d="M20.9322 3.99428C20.9322 3.99428 19.8288 3.37561 18.103 3.99428C16.5805 4.53871 12.9216 6.97625 12.5441 11.8472C12.3657 14.161 13.3738 16.3058 14.3943 17.0234C14.6764 17.2214 17.0783 13.2165 17.8334 12.9443C17.8334 12.9443 21.5711 15.2664 24.1514 14.4869C24.3879 14.4168 24.4916 14.1569 24.3589 13.9589L23.5001 12.668C23.5001 12.668 26.4165 13.5465 27.6942 14.4168C29.8099 15.8562 30.6023 17.0894 31.0171 16.8873C31.432 16.6811 33.025 15.056 32.6433 11.0925C32.1745 6.23385 25.4375 0.702971 20.9322 3.99428Z" fill="black" stroke="black" stroke-width="0.5" stroke-miterlimit="10"/>
<path d="M19.3076 17.6748C19.6306 17.6748 19.8925 17.4144 19.8925 17.0933C19.8925 16.7721 19.6306 16.5117 19.3076 16.5117C18.9845 16.5117 18.7227 16.7721 18.7227 17.0933C18.7227 17.4144 18.9845 17.6748 19.3076 17.6748Z" fill="black" stroke="black" stroke-width="0.8" stroke-miterlimit="10" stroke-linecap="round" stroke-linejoin="round"/>
<path d="M26.1435 17.6748C26.4666 17.6748 26.7285 17.4144 26.7285 17.0933C26.7285 16.7721 26.4666 16.5117 26.1435 16.5117C25.8205 16.5117 25.5586 16.7721 25.5586 17.0933C25.5586 17.4144 25.8205 17.6748 26.1435 17.6748Z" fill="black" stroke="black" stroke-width="0.8" stroke-miterlimit="10" stroke-linecap="round" stroke-linejoin="round"/>
<path d="M20.875 23.4453L24.563 23.4948" stroke="black" stroke-width="1.6" stroke-miterlimit="10" stroke-linecap="round" stroke-linejoin="round"/>
<path d="M22.7188 19.333V20.36" stroke="black" stroke-width="1.3" stroke-miterlimit="10" stroke-linecap="round" stroke-linejoin="round"/>
<path d="M37.3645 41.4114C39.9626 41.4114 42.0688 39.3174 42.0688 36.7343C42.0688 34.1511 39.9626 32.0571 37.3645 32.0571C34.7664 32.0571 32.6602 34.1511 32.6602 36.7343C32.6602 39.3174 34.7664 41.4114 37.3645 41.4114Z" fill="#8EE0FF" stroke="black" stroke-width="1.6" stroke-miterlimit="10" stroke-linecap="round" stroke-linejoin="round"/>
<path d="M37.3477 41.4238V44.3316" stroke="black" stroke-width="1.6" stroke-miterlimit="10" stroke-linecap="round" stroke-linejoin="round"/>
<path d="M37.3477 29.1084V32.0203" stroke="black" stroke-width="1.6" stroke-miterlimit="10" stroke-linecap="round" stroke-linejoin="round"/>
<path d="M42.0742 36.7217H44.9989" stroke="black" stroke-width="1.6" stroke-miterlimit="10" stroke-linecap="round" stroke-linejoin="round"/>
<path d="M29.6875 36.7217H32.6163" stroke="black" stroke-width="1.6" stroke-miterlimit="10" stroke-linecap="round" stroke-linejoin="round"/>
<path d="M40.6992 40.042L42.7693 42.1001" stroke="black" stroke-width="1.6" stroke-miterlimit="10" stroke-linecap="round" stroke-linejoin="round"/>
<path d="M31.9414 31.3354L34.0115 33.3936" stroke="black" stroke-width="1.6" stroke-miterlimit="10" stroke-linecap="round" stroke-linejoin="round"/>
<path d="M40.7031 33.3936L42.7732 31.3354" stroke="black" stroke-width="1.6" stroke-miterlimit="10" stroke-linecap="round" stroke-linejoin="round"/>
<path d="M31.9453 42.1001L34.0154 40.042" stroke="black" stroke-width="1.6" stroke-miterlimit="10" stroke-linecap="round" stroke-linejoin="round"/>
</svg>
