<svg width="50" height="50" viewBox="0 0 50 50" fill="none" xmlns="http://www.w3.org/2000/svg">
<mask id="mask0_1232_52492" style="mask-type:alpha" maskUnits="userSpaceOnUse" x="0" y="0" width="50" height="50">
<rect width="50" height="50" fill="#C4C4C4"/>
</mask>
<g mask="url(#mask0_1232_52492)">
<path d="M41.0886 23.7017C41.0215 23.6521 40.0186 22.9802 38.4808 22.3518C37.9855 22.1516 37.2751 22.0405 36.6295 22.9352C36.0602 23.7341 35.5874 24.79 35.4368 25.4611C35.2525 26.2996 35.5261 27.5356 36.5793 28.0779C37.6325 28.6202 40.6677 30.1831 43.5113 30.6831" fill="#4AD0FF"/>
<path d="M16.7139 22.9445C16.9746 23.0615 16.9987 23.4239 16.7572 23.5811C14.2151 25.1751 7.03282 30.6944 6.71161 31.2993C6.30906 32.053 6.62017 32.7073 7.34259 33.1918C8.065 33.6762 9.58109 34.7042 11.6521 34.0806C13.4456 33.5452 24.2975 28.784 26.8617 28.0223C27.306 27.8888 27.7818 27.9167 28.2036 28.104C30.5607 29.1291 38.5124 32.5853 39.8704 32.9086C40.9328 33.1642 42.4778 33.3091 43.2371 31.8387C43.8205 30.7002 44.2278 29.2265 41.1256 24.6015C39.5552 22.258 36.7187 20.9919 35.7122 20.6325C34.1574 20.068 23.8161 16.1154 19.7543 14.7501C18.4645 14.3121 15.0659 13.22 14.8059 12.5149C14.3614 11.3146 12.7477 6.23202 12.0955 5.30407C11.3867 4.29927 10.5794 4.27607 10.0562 4.26906C9.47996 4.25714 8.66459 4.63877 8.59413 5.70973C8.53456 6.65156 8.62291 8.36472 8.62291 8.36472C8.62291 8.36472 8.48264 14.6491 9.05986 16.5992C9.41454 17.7882 10.5837 19.9524 13.5256 21.432C14.8464 22.0939 16.0314 22.6403 16.7139 22.9445Z" stroke="black" stroke-width="1.6" stroke-miterlimit="10"/>
<path d="M26.6978 17.0148C26.9621 16.8193 34.9837 11.5239 36.4675 11.4019C37.5794 11.3079 39.4641 12.3771 39.6333 13.2351C39.8428 14.3128 34.4718 20.504 34.4718 20.504" stroke="black" stroke-width="1.6" stroke-miterlimit="10"/>
<path d="M9 45H42" stroke="black" stroke-width="1.6" stroke-linecap="round" stroke-linejoin="round"/>
</g>
</svg>
