<svg width="44" height="44" viewBox="0 0 44 44" fill="none" xmlns="http://www.w3.org/2000/svg">
<rect width="44" height="44" fill="white"/>
<path d="M30.8211 36.3147C30.9064 36.2376 30.9523 36.1413 30.9523 36.0449V29.037C30.9523 28.8443 30.7818 28.6772 30.5325 28.6387C29.168 28.4203 24.7333 27.7458 21.0923 27.7458C17.4645 27.7458 13.7908 28.5231 12.4525 28.7543C12.2033 28.7993 12.0327 28.9663 12.0392 29.1654L12.1508 35.9807C12.1508 36.0514 12.177 36.1156 12.2229 36.1734C12.2229 36.1734 14.578 40.4964 21.4728 40.4964C28.5185 40.5028 30.8211 36.3147 30.8211 36.3147Z" fill="#8EE0FF" stroke="black" stroke-width="1.6" stroke-miterlimit="10" stroke-linecap="round" stroke-linejoin="round"/>
<path d="M12.0275 28.8119C12.0275 28.8119 10.3021 23.5383 8.76704 22.2728C8.76704 22.2728 6.41848 21.38 5.38197 23.3391C4.29297 25.4011 5.57878 28.2145 8.64896 29.2872C8.64896 29.2872 10.4793 40.5026 21.4742 40.5026C32.4691 40.5026 34.3519 29.2872 34.3519 29.2872C37.4155 28.221 38.7079 25.4011 37.6189 23.3391C36.5824 21.38 34.2338 22.2728 34.2338 22.2728C32.7971 22.8959 30.9078 28.4843 30.9078 28.4843" stroke="black" stroke-width="1.6" stroke-miterlimit="10" stroke-linecap="round" stroke-linejoin="round"/>
<path d="M18.7622 3.5485C18.7622 3.5485 17.0172 2.58498 14.2882 3.5485C11.8806 4.39639 6.10103 8.19265 5.49749 15.7787C5.2154 19.3823 6.80953 22.7225 8.42334 23.8402C8.86944 24.1485 12.6678 17.9113 13.8618 17.4874C13.8618 17.4874 19.7725 21.1038 23.853 19.8897C24.2269 19.7805 24.3909 19.3759 24.181 19.0675L22.823 17.057C22.823 17.057 27.4348 18.4252 29.4554 19.7805C32.8011 22.0223 34.0541 23.9429 34.7101 23.6282C35.3661 23.307 37.8853 20.7762 37.2817 14.6032C36.5404 7.03643 25.8866 -1.57741 18.7622 3.5485Z" fill="black" stroke="black" stroke-width="0.8" stroke-miterlimit="10"/>
<path d="M15.7844 24.8422C16.2952 24.8422 16.7094 24.4367 16.7094 23.9365C16.7094 23.4363 16.2952 23.0308 15.7844 23.0308C15.2735 23.0308 14.8594 23.4363 14.8594 23.9365C14.8594 24.4367 15.2735 24.8422 15.7844 24.8422Z" fill="black" stroke="black" stroke-width="1.02841" stroke-miterlimit="10" stroke-linecap="round" stroke-linejoin="round"/>
<path d="M26.5969 24.8422C27.1077 24.8422 27.5219 24.4367 27.5219 23.9365C27.5219 23.4363 27.1077 23.0308 26.5969 23.0308C26.086 23.0308 25.6719 23.4363 25.6719 23.9365C25.6719 24.4367 26.086 24.8422 26.5969 24.8422Z" fill="black" stroke="black" stroke-width="1.02841" stroke-miterlimit="10" stroke-linecap="round" stroke-linejoin="round"/>
</svg>
