<svg width="44" height="44" viewBox="0 0 44 44" fill="none" xmlns="http://www.w3.org/2000/svg">
<rect width="44" height="44" fill="white"/>
<mask id="mask0_1232_53043" style="mask-type:alpha" maskUnits="userSpaceOnUse" x="0" y="0" width="44" height="44">
<rect width="44" height="44" fill="#C4C4C4"/>
</mask>
<g mask="url(#mask0_1232_53043)">
<path d="M21.7475 37.626L14.6484 20.262L25.0662 16.0028L32.1653 33.3668C33.3385 36.2365 31.9625 39.5157 29.0929 40.6889L29.0696 40.6984C26.2013 41.875 22.9221 40.499 21.7475 37.626Z" fill="#8EE0FF"/>
<path d="M21.6072 36.8994L12.1914 13.8687L22.6329 9.59977L32.0487 32.6305C33.2779 35.6369 31.9366 39.0327 29.0545 40.211C26.168 41.3873 22.8364 39.9058 21.6072 36.8994Z" stroke="black" stroke-width="1.6" stroke-miterlimit="10"/>
<path d="M22.7872 9.53556L12.0327 13.9324C11.0712 14.3255 9.95736 13.8291 9.54657 12.8243L8.31842 9.82029C7.90763 8.81552 8.35463 7.68094 9.31615 7.28783L20.0707 2.89097C21.0322 2.49787 22.146 2.99432 22.5568 3.9991L23.785 7.0031C24.1958 8.00787 23.7488 9.14245 22.7872 9.53556Z" stroke="black" stroke-width="1.6" stroke-miterlimit="10"/>
</g>
</svg>
