<svg width="44" height="44" viewBox="0 0 44 44" fill="none" xmlns="http://www.w3.org/2000/svg">
<rect width="44" height="44" fill="white"/>
<g clip-path="url(#clip0_1232_53042)">
<path d="M7.80859 21.083L11.384 10.8045C11.7267 9.81829 12.6692 9.14795 13.7286 9.14795H30.2968C31.3562 9.14795 32.2909 9.81058 32.6414 10.8045L36.2168 21.083" stroke="black" stroke-width="1.6" stroke-miterlimit="10"/>
<path d="M4.66797 30.1519V33.2107C4.66797 34.1122 5.40797 34.8442 6.31934 34.8442H9.34944C10.2608 34.8442 11.0008 34.1122 11.0008 33.2107V30.1519" stroke="black" stroke-width="1.6" stroke-miterlimit="10" stroke-linecap="round" stroke-linejoin="round"/>
<path d="M39.3328 30.1519V33.2107C39.3328 34.1122 38.5928 34.8442 37.6815 34.8442H34.6514C33.74 34.8442 33 34.1122 33 33.2107V30.1519" stroke="black" stroke-width="1.6" stroke-miterlimit="10" stroke-linecap="round" stroke-linejoin="round"/>
<path d="M39.3311 30.3676V22.8398C39.3311 20.6824 37.5473 18.918 35.3663 18.918H8.63281C6.45176 18.918 4.66797 20.6824 4.66797 22.8398V30.3676H39.3311Z" fill="#8EE0FF" stroke="black" stroke-width="1.6" stroke-miterlimit="10" stroke-linecap="round" stroke-linejoin="round"/>
<path d="M10.4729 25.8831C11.1655 25.8831 11.727 25.3277 11.727 24.6426C11.727 23.9575 11.1655 23.4021 10.4729 23.4021C9.78023 23.4021 9.21875 23.9575 9.21875 24.6426C9.21875 25.3277 9.78023 25.8831 10.4729 25.8831Z" fill="black"/>
<path d="M33.5275 25.8831C34.2202 25.8831 34.7817 25.3277 34.7817 24.6426C34.7817 23.9575 34.2202 23.4021 33.5275 23.4021C32.8349 23.4021 32.2734 23.9575 32.2734 24.6426C32.2734 25.3277 32.8349 25.8831 33.5275 25.8831Z" fill="black"/>
</g>
<defs>
<clipPath id="clip0_1232_53042">
<rect width="37" height="28" fill="white" transform="translate(3.5 8)"/>
</clipPath>
</defs>
</svg>
