<svg width="44" height="44" viewBox="0 0 44 44" fill="none" xmlns="http://www.w3.org/2000/svg">
<rect width="44" height="44" fill="white"/>
<path d="M40.9978 14.4766L23.5363 3.96134C22.5837 3.3877 21.3919 3.38801 20.4397 3.96215L3 14.4766" stroke="black" stroke-width="1.6" stroke-miterlimit="10" stroke-linecap="round" stroke-linejoin="round"/>
<path d="M16.1426 20.6829C15.9383 20.7449 15.7369 20.8809 15.5965 21.1513C15.164 21.9866 15.6786 23.1277 16.8942 23.5677C16.8942 23.5677 17.6251 28.117 21.9879 28.117C26.3508 28.117 27.104 23.5677 27.104 23.5677C28.3197 23.1351 28.8343 21.9941 28.4017 21.1513C28.2282 20.8137 27.9611 20.6843 27.7108 20.6475" stroke="black" stroke-width="1.6" stroke-miterlimit="10" stroke-linecap="round" stroke-linejoin="round"/>
<path d="M20.9149 12.769C20.9149 12.769 20.2213 12.3588 19.1399 12.769C18.1853 13.127 15.8883 14.7304 15.6496 17.9373C15.5378 19.4587 16.1717 20.8757 16.8131 21.3456C16.9921 21.4798 18.4985 18.8397 18.9758 18.6607C18.9758 18.6607 21.3251 20.1896 22.9434 19.675C23.0926 19.6302 23.1597 19.4587 23.0777 19.3319L22.5407 18.4817C22.5407 18.4817 24.3753 19.0634 25.1733 19.6302C26.5008 20.5774 27.0005 21.3903 27.2615 21.2561C27.5226 21.1218 28.5219 20.0479 28.2833 17.4376C27.9775 14.2457 23.7414 10.6062 20.9149 12.769Z" fill="black" stroke="black" stroke-width="0.730937" stroke-miterlimit="10"/>
<path d="M10.6797 39.5351C10.6797 39.2368 12.0519 33.099 12.0519 33.099L17.3097 31.0183L21.1505 32.8007L24.7601 32.2041L26.6768 30.8169L32.0241 33.539L33.1204 35.7391L33.3069 39.3263L10.6797 39.5351Z" fill="#4AD0FF"/>
<path d="M17.4492 30.7271C17.4492 30.7271 18.993 32.5542 22.0209 32.5542C25.2576 32.5542 26.4583 30.7718 26.4583 30.7718" stroke="black" stroke-width="1.6" stroke-miterlimit="10"/>
<path d="M18.7924 27.1848C18.7924 27.1848 18.7477 28.5869 18.5538 29.3923C18.1809 30.9734 15.056 31.406 13.0871 32.6216C11.2078 33.785 10.8125 36.4549 10.8125 38.4835" stroke="black" stroke-width="1.6" stroke-miterlimit="10" stroke-linecap="round"/>
<path d="M33.2807 38.4835C33.2807 36.4624 32.8854 33.785 31.006 32.6216C29.0446 31.406 25.9123 30.9734 25.5394 29.3923C25.353 28.5869 25.3008 27.1848 25.3008 27.1848" stroke="black" stroke-width="1.6" stroke-miterlimit="10" stroke-linecap="round"/>
<path d="M38.0191 12.9258V34.7848C38.0191 37.2384 36.2068 39.2297 33.9769 39.2297H10.0148C7.77746 39.2297 5.97266 37.2384 5.97266 34.7848V12.9258" stroke="black" stroke-width="1.6" stroke-miterlimit="10" stroke-linecap="round" stroke-linejoin="round"/>
</svg>
