<svg width="124" height="35" viewBox="0 0 124 35" fill="none" xmlns="http://www.w3.org/2000/svg">
<path d="M2.288 13.154C2.288 10.892 3.198 9.098 4.784 7.85C6.578 6.42 9.256 5.718 12.506 5.718C15.73 5.718 18.408 6.42 20.202 7.85C21.788 9.098 22.724 10.892 22.724 13.154C22.724 15.468 21.788 17.262 20.202 18.51C18.85 19.55 16.978 20.226 14.768 20.512V25.192H23.348V28.91H1.612V25.192H10.218V20.512C7.982 20.226 6.136 19.55 4.784 18.51C3.198 17.262 2.288 15.468 2.288 13.154ZM6.838 13.154C6.838 14.272 7.254 15.13 8.06 15.754C9.022 16.508 10.556 16.898 12.506 16.898C14.43 16.898 15.964 16.508 16.926 15.754C17.732 15.13 18.148 14.272 18.148 13.154C18.148 12.088 17.732 11.23 16.926 10.606C15.964 9.826 14.43 9.462 12.506 9.462C10.556 9.462 9.022 9.826 8.06 10.606C7.254 11.23 6.838 12.088 6.838 13.154ZM26.337 5.718H30.835V9.826H45.551V13.128H26.337V5.718ZM46.903 17.652H24.855V14.298H46.903V17.652ZM45.421 26.076H30.809V27.064H45.915V30.158H26.337V22.982H40.923V21.994H26.337V18.874H45.421V26.076ZM58.472 13.466C58.472 11.854 58.186 10.658 57.562 10.008C57.172 9.566 56.626 9.384 55.976 9.384C55.3 9.384 54.78 9.566 54.364 10.008C53.714 10.658 53.428 11.854 53.428 13.466C53.428 15.078 53.714 16.274 54.364 16.924C54.78 17.34 55.3 17.522 55.976 17.522C56.626 17.522 57.172 17.34 57.562 16.924C58.186 16.274 58.472 15.078 58.472 13.466ZM49.086 13.466C49.086 10.606 49.918 8.474 51.504 7.122C52.648 6.212 54.182 5.718 55.976 5.718C57.718 5.718 59.278 6.212 60.422 7.122C62.008 8.474 62.84 10.606 62.84 13.466C62.84 16.326 62.008 18.484 60.422 19.784C59.278 20.72 57.718 21.24 55.976 21.24C54.182 21.24 52.648 20.72 51.504 19.784C49.918 18.484 49.086 16.326 49.086 13.466ZM68.924 5.562V29.924H64.374V27.48C63.542 28.286 62.138 28.65 59.85 28.65H48.488V24.932H60.37C62.372 24.932 63.568 24.646 64.374 23.892V5.562H68.924Z" fill="#4378FF"/>
<path d="M81.5563 5.848V9.072H85.5343V5.848H89.8503V18.926H77.2143V5.848H81.5563ZM81.5563 15.39H85.5343V12.608H81.5563V15.39ZM92.2943 5.562H96.8443V10.632H100.042V14.428H96.8443V19.576H92.2943V5.562ZM78.1763 25.218C78.1763 23.372 79.0343 22.098 80.5423 21.266C82.2583 20.278 84.8323 19.888 87.7963 19.888C90.7343 19.888 93.3083 20.278 95.0243 21.266C96.5063 22.098 97.3903 23.372 97.3903 25.218C97.3903 26.986 96.5063 28.286 95.0243 29.118C93.3083 30.106 90.7343 30.47 87.7963 30.47C84.8323 30.47 82.2583 30.106 80.5423 29.118C79.0343 28.286 78.1763 26.986 78.1763 25.218ZM82.6743 25.218C82.6743 25.608 82.8823 25.946 83.2723 26.18C84.0523 26.648 85.6123 26.856 87.7963 26.856C90.0063 26.856 91.4883 26.648 92.2683 26.18C92.6843 25.946 92.8923 25.608 92.8923 25.218C92.8923 24.776 92.6843 24.464 92.2683 24.178C91.4883 23.71 90.0063 23.554 87.7963 23.554C85.6123 23.554 84.0523 23.71 83.2723 24.178C82.8823 24.464 82.6743 24.776 82.6743 25.218ZM109.297 12.348C109.297 11.178 109.089 10.268 108.569 9.696C108.257 9.306 107.737 9.046 107.087 9.046C106.437 9.046 105.943 9.306 105.553 9.696C105.085 10.268 104.825 11.178 104.825 12.348C104.825 13.518 105.085 14.428 105.553 15C105.943 15.39 106.437 15.65 107.087 15.65C107.737 15.65 108.257 15.39 108.569 15C109.089 14.428 109.297 13.518 109.297 12.348ZM100.509 12.348C100.509 9.93 101.315 8.058 102.771 6.862C103.863 5.926 105.319 5.432 107.087 5.432C108.829 5.432 110.285 5.926 111.403 6.862C111.689 7.096 111.949 7.382 112.183 7.668H116.291V5.562H120.841V19.81H116.291V16.976H112.235C111.975 17.288 111.715 17.574 111.403 17.834C110.285 18.744 108.829 19.29 107.087 19.29C105.319 19.29 103.863 18.744 102.771 17.834C101.315 16.664 100.509 14.74 100.509 12.348ZM113.561 11.256C113.587 11.594 113.613 11.958 113.613 12.348C113.613 12.712 113.587 13.05 113.561 13.388H116.291V11.256H113.561ZM101.991 24.516V20.772H120.841V30.314H116.291V24.516H101.991Z" fill="black"/>
</svg>
