<svg width="27" height="27" viewBox="0 0 27 27" fill="none" xmlns="http://www.w3.org/2000/svg">
<rect width="27" height="27" fill="white"/>
<path d="M12.4473 24.053C13.1231 24.2961 13.8769 24.2961 14.5527 24.053C19.764 22.1573 23 17.4546 23 12.6182V7.02833C23 6.39643 22.5321 5.83745 21.8824 5.69163C20.2449 5.32707 17.0999 4.52505 14.2148 3.16405C13.7599 2.94532 13.2271 2.94532 12.7722 3.16405C9.88714 4.52505 6.72914 5.32707 5.10465 5.69163C4.45486 5.83745 4 6.38428 4 7.01617V12.6182C4 17.4546 7.23598 22.1573 12.4473 24.053Z" stroke="black" stroke-width="1.8" stroke-miterlimit="10" stroke-linecap="round" stroke-linejoin="round"/>
<path d="M9.52344 13.2806L12.251 16.0082L17.4861 10.7732" stroke="black" stroke-width="1.8" stroke-miterlimit="10" stroke-linecap="round" stroke-linejoin="round"/>
</svg>
