<svg width="38" height="38" viewBox="0 0 38 38" fill="none" xmlns="http://www.w3.org/2000/svg">
<rect width="38" height="38" fill="white"/>
<path d="M9.3695 21.739C10.6781 21.739 11.739 20.6781 11.739 19.3695C11.739 18.0609 10.6781 17 9.3695 17C8.06085 17 7 18.0609 7 19.3695C7 20.6781 8.06085 21.739 9.3695 21.739Z" fill="black"/>
<path d="M18.8519 21.739C20.1606 21.739 21.2214 20.6781 21.2214 19.3695C21.2214 18.0609 20.1606 17 18.8519 17C17.5433 17 16.4824 18.0609 16.4824 19.3695C16.4824 20.6781 17.5433 21.739 18.8519 21.739Z" fill="black"/>
<path d="M28.3343 21.739C29.643 21.739 30.7038 20.6781 30.7038 19.3695C30.7038 18.0609 29.643 17 28.3343 17C27.0257 17 25.9648 18.0609 25.9648 19.3695C25.9648 20.6781 27.0257 21.739 28.3343 21.739Z" fill="black"/>
</svg>
