<svg width="38" height="38" viewBox="0 0 38 38" fill="none" xmlns="http://www.w3.org/2000/svg">
<rect width="38" height="38" fill="white"/>
<path d="M36.7706 18.5181H34.1417H33.0391" stroke="black" stroke-width="1.6" stroke-miterlimit="10" stroke-linecap="round"/>
<path d="M2 18.5181H4.57272H5.41589" stroke="black" stroke-width="1.6" stroke-miterlimit="10" stroke-linecap="round"/>
<path d="M26.9901 18.5181H11.7656" stroke="black" stroke-width="1.6" stroke-miterlimit="10" stroke-linecap="round"/>
<path d="M8.54334 27.0319H8.32283C6.79217 27.0319 5.54688 25.7909 5.54688 24.2559V12.776C5.54688 11.2453 6.78784 10 8.32283 10H8.54334C10.074 10 11.3193 11.241 11.3193 12.776V24.2559C11.315 25.7866 10.074 27.0319 8.54334 27.0319Z" fill="#BBD2FF" stroke="black" stroke-width="1.6" stroke-miterlimit="10"/>
<path d="M30.1449 27.0319H29.9244C28.3937 27.0319 27.1484 25.7909 27.1484 24.2559V12.776C27.1484 11.2453 28.3894 10 29.9244 10H30.1449C31.6756 10 32.9209 11.241 32.9209 12.776V24.2559C32.9165 25.7866 31.6756 27.0319 30.1449 27.0319Z" fill="#BBD2FF" stroke="black" stroke-width="1.6" stroke-miterlimit="10"/>
</svg>
