<svg width="38" height="38" viewBox="0 0 38 38" fill="none" xmlns="http://www.w3.org/2000/svg">
<rect width="38" height="38" fill="white"/>
<path d="M21.3454 23.1075C22.4156 23.1075 23.5521 23.7871 24.1341 24.6816L26.1729 27.7944C28.6335 31.4229 34 29.5598 34 25.6307V17.4364C34 12.7769 30.2232 9 25.5636 9H12.4364C7.77685 9 4 12.7769 4 17.4364V25.6307C4 29.5598 9.36651 31.4229 11.8271 27.7944L13.8659 24.6816C14.4518 23.7871 15.5884 23.1075 16.6546 23.1075H21.3454V23.1075Z" stroke="black" stroke-width="1.6" stroke-miterlimit="10" stroke-linecap="round" stroke-linejoin="round"/>
<path d="M12.5973 19.573C14.1698 19.573 15.4446 18.2982 15.4446 16.7257C15.4446 15.1532 14.1698 13.8784 12.5973 13.8784C11.0248 13.8784 9.75 15.1532 9.75 16.7257C9.75 18.2982 11.0248 19.573 12.5973 19.573Z" fill="#BBD2FF" stroke="black" stroke-width="1.6" stroke-miterlimit="10" stroke-linecap="round" stroke-linejoin="round"/>
<path d="M22.3848 16.7246H28.4543" stroke="black" stroke-width="1.6" stroke-miterlimit="10" stroke-linecap="round" stroke-linejoin="round"/>
<path d="M25.4199 19.7595V13.6899" stroke="black" stroke-width="1.6" stroke-miterlimit="10" stroke-linecap="round" stroke-linejoin="round"/>
</svg>
