<svg width="38" height="38" viewBox="0 0 38 38" fill="none" xmlns="http://www.w3.org/2000/svg">
<rect width="38" height="38" fill="white"/>
<path d="M29.8709 13.1471C31.0131 13.1471 31.9391 12.2211 31.9391 11.0789C31.9391 9.93669 31.0131 9.01074 29.8709 9.01074C28.7287 9.01074 27.8027 9.93669 27.8027 11.0789C27.8027 12.2211 28.7287 13.1471 29.8709 13.1471Z" stroke="black" stroke-width="1.6" stroke-miterlimit="10" stroke-linecap="round" stroke-linejoin="round"/>
<path d="M24.6794 8.49168C25.3675 8.49168 25.9253 7.9339 25.9253 7.24584C25.9253 6.55778 25.3675 6 24.6794 6C23.9914 6 23.4336 6.55778 23.4336 7.24584C23.4336 7.9339 23.9914 8.49168 24.6794 8.49168Z" stroke="black" stroke-width="1.6" stroke-miterlimit="10" stroke-linecap="round" stroke-linejoin="round"/>
<path d="M5.09177 17.8201C5.03177 17.506 5 17.1848 5 16.8531C5 13.9943 7.31523 11.6791 10.174 11.6791C10.3892 11.6791 10.601 11.6932 10.8092 11.7179L10.8516 11.6156C11.3421 9.83329 12.9762 8.52393 14.9138 8.52393C17.2396 8.52393 19.1278 10.4086 19.1278 12.7379C19.1278 13.1155 19.0784 13.4826 18.9866 13.8285L19.0007 13.8426L19.0254 13.8496C19.1242 13.8426 19.2231 13.8426 19.3254 13.8426C21.7712 13.8426 23.8182 15.5402 24.3617 17.8201" stroke="black" stroke-width="1.6" stroke-miterlimit="10" stroke-linecap="round" stroke-linejoin="round"/>
<path d="M5.14062 18.1481L30.9892 18.1128C32.1186 18.1199 32.9691 19.1398 32.7715 20.2515L32.4291 22.4044C31.6633 26.7525 27.8869 29.9218 23.4718 29.9218H14.8321C10.4169 29.9218 6.64056 26.7525 5.8747 22.4044L5.15829 18.3281L5.14062 18.1481Z" fill="#BBD2FF" stroke="black" stroke-width="1.6" stroke-miterlimit="10" stroke-linecap="round" stroke-linejoin="round"/>
<path d="M12.4883 29.8574V31.9997" stroke="black" stroke-width="1.6" stroke-miterlimit="10" stroke-linecap="round" stroke-linejoin="round"/>
<path d="M25.8086 29.8574V31.9997" stroke="black" stroke-width="1.6" stroke-miterlimit="10" stroke-linecap="round" stroke-linejoin="round"/>
</svg>
