<svg width="38" height="38" viewBox="0 0 38 38" fill="none" xmlns="http://www.w3.org/2000/svg">
<rect width="38" height="38" fill="white"/>
<path d="M18.9994 25.162C24.5899 25.162 29.1218 20.6486 29.1218 15.081C29.1218 9.51342 24.5899 5 18.9994 5C13.4089 5 8.87695 9.51342 8.87695 15.081C8.87695 20.6486 13.4089 25.162 18.9994 25.162Z" stroke="black" stroke-width="1.6" stroke-miterlimit="10"/>
<path d="M17.0013 25.5L11.9084 31.475C11.6448 31.7776 11.1493 31.6501 11.0642 31.2549L10.2897 27.5248L6.47223 27.2889C6.07141 27.2644 5.87049 26.7904 6.13403 26.4878L10.6459 21.3069" stroke="black" stroke-width="1.6" stroke-miterlimit="10" stroke-linecap="round" stroke-linejoin="round"/>
<path d="M21.0003 25.5L26.1506 31.4762C26.4175 31.7759 26.9116 31.6429 26.9923 31.2468L27.7253 27.5083L31.5399 27.23C31.9405 27.201 32.1361 26.7248 31.8692 26.4252L27.3392 21.3387" stroke="black" stroke-width="1.6" stroke-miterlimit="10" stroke-linecap="round" stroke-linejoin="round"/>
<path d="M19 21C22.3137 21 25 18.3137 25 15C25 11.6863 22.3137 9 19 9C15.6863 9 13 11.6863 13 15C13 18.3137 15.6863 21 19 21Z" fill="#BBD2FF"/>
</svg>
