<svg width="38" height="38" viewBox="0 0 38 38" fill="none" xmlns="http://www.w3.org/2000/svg">
<rect width="38" height="38" fill="white"/>
<path d="M15.4435 21.5142V29.5899C15.4435 31.0807 14.121 32.2937 12.4854 32.2937C10.8538 32.2937 9.52734 31.0846 9.52734 29.5899V21.033" stroke="black" stroke-width="1.6" stroke-miterlimit="10"/>
<path d="M15.3337 21.6982L28.2851 17.1397C28.7116 16.9715 29.1968 17.0184 29.5841 17.261L32.0688 18.2745C32.4952 18.4936 33 18.1845 33 17.7071V8.68809C33 8.21073 32.4913 7.90162 32.0688 8.12074L29.5528 9.19676C29.1615 9.36892 28.7272 9.52152 28.2616 9.38457L14.7781 6.1839L14.602 6.15651C14.0894 6.05478 13.5612 6 13.0212 6C8.59195 6 5 9.59195 5 14.0212C5 18.4505 8.59195 22.0425 13.0212 22.0425C13.7334 22.0425 14.422 21.9486 15.0794 21.7764L15.3337 21.6982Z" stroke="black" stroke-width="1.6" stroke-miterlimit="10"/>
<path d="M13.0179 17.7307C15.0665 17.7307 16.7273 16.07 16.7273 14.0213C16.7273 11.9727 15.0665 10.312 13.0179 10.312C10.9693 10.312 9.30859 11.9727 9.30859 14.0213C9.30859 16.07 10.9693 17.7307 13.0179 17.7307Z" fill="#BBD2FF" stroke="black" stroke-width="1.6" stroke-miterlimit="10"/>
</svg>
