<svg width="38" height="38" viewBox="0 0 38 38" fill="none" xmlns="http://www.w3.org/2000/svg">
<rect width="38" height="38" fill="white"/>
<path d="M21.4064 11.4784C22.6551 10.059 24.4616 9.25439 26.4693 9.25439C30.238 9.25439 33.2969 12.0856 33.2969 16.4995C33.2969 20.9134 28.7009 25.2362 26.4693 25.2362C24.8146 25.2362 21.5317 22.5529 20.2109 19.2587" fill="#BBD2FF"/>
<path d="M21.4064 11.4784C22.6551 10.059 24.4616 9.25439 26.4693 9.25439C30.238 9.25439 33.2969 12.0856 33.2969 16.4995C33.2969 20.9134 28.7009 25.2362 26.4693 25.2362C24.8146 25.2362 21.5317 22.5529 20.2109 19.2587" stroke="black" stroke-width="1.6" stroke-miterlimit="10" stroke-linecap="round" stroke-linejoin="round"/>
<path d="M21.5368 14.0403C21.5368 19.5472 15.8022 24.944 13.0165 24.944C10.3978 24.944 4.5 19.5472 4.5 14.0403C4.5 8.53337 8.31422 5 13.0203 5C17.7264 5 21.5368 8.53337 21.5368 14.0403Z" stroke="black" stroke-width="1.6" stroke-miterlimit="10" stroke-linecap="round" stroke-linejoin="round"/>
<path d="M14.1094 7.83887C14.1094 7.83887 16.3106 8.02863 17.749 10.5676C18.9559 12.6968 18.4397 14.9739 18.4397 14.9739" stroke="black" stroke-width="1.6" stroke-miterlimit="10" stroke-linecap="round" stroke-linejoin="round"/>
<path d="M27.2656 11.7441C27.2656 11.7441 29.076 11.9415 30.1842 13.9302C31.1368 15.6457 30.7383 17.4598 30.7383 17.4598" stroke="black" stroke-width="1.6" stroke-miterlimit="10" stroke-linecap="round" stroke-linejoin="round"/>
<path d="M13.0703 25.7715L13.0855 32.842" stroke="black" stroke-width="1.6" stroke-miterlimit="10" stroke-linecap="round" stroke-linejoin="round"/>
<path d="M26.5 25.407L26.519 32.8419" stroke="black" stroke-width="1.6" stroke-miterlimit="10" stroke-linecap="round" stroke-linejoin="round"/>
</svg>
