<svg width="38" height="38" viewBox="0 0 38 38" fill="none" xmlns="http://www.w3.org/2000/svg">
<rect width="38" height="38" fill="white"/>
<path d="M27 29.1909V9.19092H33L34 11.6909V15.6909L31.5 17.1909V20.1909L34 23.1909V26.1909L33 29.1909H27Z" fill="#BBD2FF"/>
<path d="M31.1926 19.1409C31.1926 17.5059 32.2135 16.1222 33.6491 15.5599C33.8684 15.4761 34 15.2528 34 15.0215V10.7706C34 9.79357 33.2065 9 32.2295 9H5.77456C4.79756 9 4.00399 9.79357 4.00399 10.7706V15.0694C4.00399 15.2967 4.13159 15.512 4.33895 15.6038C5.71473 16.1939 6.68376 17.5498 6.68376 19.1409C6.68376 20.736 5.71475 22.0879 4.33498 22.6781C4.12762 22.7658 4 22.9851 4 23.2124V27.7704C4 28.7474 4.79357 29.541 5.77057 29.541H32.2255C33.2025 29.541 33.996 28.7474 33.996 27.7704V23.2643C33.996 23.029 33.8604 22.8097 33.6451 22.7259C32.2095 22.1596 31.1926 20.7759 31.1926 19.1409Z" stroke="black" stroke-width="1.6" stroke-miterlimit="10" stroke-linecap="round"/>
<path d="M27.2109 12.2935V14.6223" stroke="black" stroke-width="1.6" stroke-miterlimit="10" stroke-linecap="round"/>
<path d="M27.2109 18.1045V20.4373" stroke="black" stroke-width="1.6" stroke-miterlimit="10" stroke-linecap="round"/>
<path d="M27.2109 23.9141V26.2469" stroke="black" stroke-width="1.6" stroke-miterlimit="10" stroke-linecap="round"/>
<path d="M12.4609 16.6289H20.9669" stroke="black" stroke-width="1.6" stroke-miterlimit="10" stroke-linecap="round"/>
<path d="M12.4609 21.9131H20.9669" stroke="black" stroke-width="1.6" stroke-miterlimit="10" stroke-linecap="round"/>
</svg>
