<svg width="38" height="38" viewBox="0 0 38 38" fill="none" xmlns="http://www.w3.org/2000/svg">
<rect width="38" height="38" fill="white"/>
<rect x="11.8516" y="19" width="17" height="5" fill="#BBD2FF"/>
<path d="M9.69336 11.4531H28.3673C29.3868 11.4531 30.158 12.3748 29.9736 13.3754L28.2168 23.1037C28.0363 23.8335 27.4306 24.3413 26.7422 24.3413H13.064C12.3568 24.3413 11.7436 23.8071 11.5781 23.0548L9.69336 11.4531Z" stroke="black" stroke-width="1.6" stroke-miterlimit="10" stroke-linecap="round" stroke-linejoin="round"/>
<path d="M3 8H7.74751C8.39079 8 8.9513 8.474 9.10554 9.15113L9.83534 12.0553" stroke="black" stroke-width="1.6" stroke-miterlimit="10" stroke-linecap="round" stroke-linejoin="round"/>
<path d="M14.0639 31.2381C15.1962 31.2381 16.1141 30.3202 16.1141 29.1879C16.1141 28.0556 15.1962 27.1377 14.0639 27.1377C12.9316 27.1377 12.0137 28.0556 12.0137 29.1879C12.0137 30.3202 12.9316 31.2381 14.0639 31.2381Z" stroke="black" stroke-width="1.6" stroke-miterlimit="10"/>
<path d="M26.3686 31.2381C27.5009 31.2381 28.4188 30.3202 28.4188 29.1879C28.4188 28.0556 27.5009 27.1377 26.3686 27.1377C25.2363 27.1377 24.3184 28.0556 24.3184 29.1879C24.3146 30.3202 25.2325 31.2381 26.3686 31.2381Z" stroke="black" stroke-width="1.6" stroke-miterlimit="10"/>
</svg>
