<svg width="38" height="38" viewBox="0 0 38 38" fill="none" xmlns="http://www.w3.org/2000/svg">
<rect width="38" height="38" fill="white"/>
<path d="M8.5 23.4502C8.5 23.4502 12.788 20.0344 13.576 17.0557C14.364 14.077 15.4076 6.4404 15.72 5.41804C16.0537 4.32641 16.8346 3.93467 17.5895 4.00871C18.1267 4.06127 19.1395 4.24758 19.1395 5.91489C19.1395 7.46753 19.1395 22.4971 19.1395 23.9662C19.1395 25.4352 18.6118 26.3501 17.5895 26.9855C16.8701 27.4322 15.7792 27.4465 15.197 27.4155C14.932 27.4011 14.674 27.4895 14.4752 27.6663L13.4979 28.5334" stroke="black" stroke-width="1.6" stroke-miterlimit="10" stroke-linecap="round"/>
<path d="M10.7556 33.1145L4.22895 26.5265C3.92368 26.2184 3.92368 25.7192 4.22895 25.4086L6.75867 22.8551C7.06394 22.547 7.55853 22.547 7.86616 22.8551L14.3928 29.4431C14.6981 29.7513 14.6981 30.2505 14.3928 30.561L11.8631 33.1145C11.5554 33.4227 11.0609 33.4227 10.7556 33.1145Z" fill="#BBD2FF" stroke="black" stroke-width="1.6" stroke-miterlimit="10" stroke-linecap="round"/>
<path d="M29.7957 23.4502C29.7957 23.4502 25.5078 20.0344 24.7197 17.0557C23.9317 14.077 22.8881 6.4404 22.5758 5.41804C22.2421 4.32641 21.4612 3.93467 20.7063 4.00871C20.1691 4.06127 19.1562 4.24758 19.1562 5.91489C19.1562 7.46753 19.1562 22.4971 19.1562 23.9662C19.1562 25.4352 19.684 26.3501 20.7063 26.9855C21.4257 27.4322 22.5166 27.4465 23.0987 27.4155C23.3638 27.4011 23.6217 27.4895 23.8205 27.6663L24.7978 28.5334" stroke="black" stroke-width="1.6" stroke-miterlimit="10" stroke-linecap="round"/>
<path d="M27.5419 33.115L34.0686 26.527C34.3738 26.2189 34.3738 25.7197 34.0686 25.4091L31.5389 22.8556C31.2336 22.5475 30.739 22.5475 30.4314 22.8556L23.9047 29.4436C23.5995 29.7518 23.5995 30.251 23.9047 30.5615L26.4345 33.115C26.7421 33.4232 27.2367 33.4232 27.5419 33.115Z" fill="#BBD2FF" stroke="black" stroke-width="1.6" stroke-miterlimit="10" stroke-linecap="round"/>
</svg>
