<svg width="38" height="38" viewBox="0 0 38 38" fill="none" xmlns="http://www.w3.org/2000/svg">
<rect width="38" height="38" fill="white"/>
<path d="M6 17V9.84709C6 8.82409 6.89579 8 7.99797 8H30.002C31.1086 8 32 8.82815 32 9.84709V17" stroke="black" stroke-width="1.6" stroke-miterlimit="10"/>
<path d="M18.9957 17.1189H9V13.3036C9 12.352 9.83817 11.5774 10.8679 11.5774H17.1278C18.1576 11.5774 18.9957 12.352 18.9957 13.3036V17.1189Z" stroke="black" stroke-width="1.6" stroke-miterlimit="10"/>
<path d="M28.9997 17.1189H19.0039V13.3036C19.0039 12.352 19.8421 11.5774 20.8718 11.5774H27.1317C28.1615 11.5774 28.9997 12.352 28.9997 13.3036V17.1189Z" stroke="black" stroke-width="1.6" stroke-miterlimit="10"/>
<path d="M32.2144 24.3851C33.0312 24.3851 33.695 24.0008 33.695 23.5279V20.7516V19.0816C33.695 18.0521 32.2547 17.2183 30.4764 17.2183H7.22245C5.4442 17.2183 4.00391 18.0521 4.00391 19.0816V20.7516V23.5279C4.00391 24.0008 4.66773 24.3851 5.48444 24.3851H8.33285H29.3701H32.2144Z" fill="#BBD2FF"/>
<path d="M32.6101 29.4819C33.4384 29.4819 34.1116 28.8087 34.1116 27.9804V23.1169V20.1914C34.1116 18.3879 32.6509 16.9272 30.8475 16.9272H7.26413C5.4607 16.9272 4 18.3879 4 20.1914V23.1169V27.9804C4 28.8087 4.67323 29.4819 5.5015 29.4819H8.39025H29.7254H32.6101Z" stroke="black" stroke-width="1.6" stroke-miterlimit="10"/>
<path d="M4.11719 24.4592H34.0003" stroke="black" stroke-width="1.6" stroke-miterlimit="10"/>
</svg>
