<svg width="28" height="28" viewBox="0 0 28 28" fill="none" xmlns="http://www.w3.org/2000/svg">
<rect width="28" height="28" fill="white"/>
<path d="M21.4407 8.70481C25.1111 15.1946 18.3022 21.2322 15.3056 23.4663C14.5342 24.0426 13.4792 24.0515 12.7079 23.4663C10.3319 21.6666 5.5 17.4287 5.5 12.5792C5.5 7.95122 9.19703 4.19213 13.7895 4.07687C17.0078 4.00595 19.8626 5.90323 21.4407 8.70481Z" stroke="black" stroke-width="1.5" stroke-miterlimit="10" stroke-linecap="round" stroke-linejoin="round"/>
<path d="M14.0072 15.3897C15.8385 15.3897 17.323 13.9051 17.323 12.0739C17.323 10.2426 15.8385 8.75806 14.0072 8.75806C12.1759 8.75806 10.6914 10.2426 10.6914 12.0739C10.6914 13.9051 12.1759 15.3897 14.0072 15.3897Z" stroke="black" stroke-width="1.5" stroke-miterlimit="10"/>
</svg>
