<svg width="28" height="28" viewBox="0 0 28 28" fill="none" xmlns="http://www.w3.org/2000/svg">
<rect width="28" height="28" fill="white"/>
<path d="M13.0581 22.8369C13.6628 23.0544 14.3372 23.0544 14.9419 22.8369C19.6047 21.1408 22.5 16.933 22.5 12.6057V7.60429C22.5 7.03891 22.0814 6.53877 21.5 6.4083C20.0349 6.08212 17.2209 5.36452 14.6395 4.14678C14.2326 3.95107 13.7558 3.95107 13.3488 4.14678C10.7674 5.36452 7.94186 6.08212 6.48837 6.4083C5.90698 6.53877 5.5 7.02804 5.5 7.59342V12.6057C5.5 16.933 8.39535 21.1408 13.0581 22.8369Z" stroke="black" stroke-width="1.5" stroke-miterlimit="10" stroke-linecap="round" stroke-linejoin="round"/>
<path d="M10.4414 13.1983L12.8819 15.6388L17.5659 10.9548" stroke="black" stroke-width="1.5" stroke-miterlimit="10" stroke-linecap="round" stroke-linejoin="round"/>
</svg>
